<svg width="29" height="30" viewBox="0 0 29 30" fill="none" xmlns="http://www.w3.org/2000/svg">
<path d="M8.08372 15.0001C8.08372 18.682 11.056 21.6667 14.7225 21.6667C18.389 21.6667 21.3613 18.682 21.3613 15.0001C21.3613 11.3182 18.389 8.33342 14.7225 8.33342C11.056 8.33342 8.08372 11.3182 8.08372 15.0001Z" fill="#5B4000"/>
<path d="M14.7225 4.33341V1.66675M14.7225 25.6667V28.3334M7.30594 7.55237L5.42821 5.66675M22.3279 22.6375L24.2056 24.5231M4.10046 15.0001H1.44495M25.3445 15.0001H28M22.3286 7.55237L24.2063 5.66675M7.30659 22.6375L5.42886 24.5231M14.7225 21.6667C11.056 21.6667 8.08372 18.682 8.08372 15.0001C8.08372 11.3182 11.056 8.33341 14.7225 8.33341C18.389 8.33341 21.3613 11.3182 21.3613 15.0001C21.3613 18.682 18.389 21.6667 14.7225 21.6667Z" stroke="#6D2F3C" stroke-width="2" stroke-linecap="round" stroke-linejoin="round"/>
</svg>
