<svg width="364" height="173" viewBox="0 0 364 173" fill="none" xmlns="http://www.w3.org/2000/svg">
<g clip-path="url(#clip0_2047_14)">
<path d="M27.6269 64.9659C22.3196 64.9659 17.5956 64.1742 13.4602 62.5909C9.31958 60.9972 6.07479 58.3357 3.73104 54.6117C1.38208 50.893 0.210205 45.8565 0.210205 39.5076C0.210205 34.9659 0.986246 31.0805 2.54354 27.8409C4.09562 24.5909 6.17895 21.9555 8.79354 19.9242C11.4185 17.8826 14.3456 16.3982 17.5852 15.4659C20.8352 14.5388 24.179 14.0701 27.6269 14.0701C33.554 14.0701 38.1269 14.6638 41.3352 15.8409C44.5435 17.0076 46.6581 17.9347 47.6894 18.6117L52.856 35.0701L50.7935 41.4867H18.731C19.2154 44.0284 20.4915 46.169 22.5644 47.9034C24.6321 49.6274 28.0435 50.4867 32.7935 50.4867C36.5123 50.4867 39.7154 50.0701 42.3977 49.2367C45.0904 48.4034 47.1998 47.6847 48.731 47.0701V60.9242C46.6581 62.0232 43.6737 62.9763 39.7727 63.7784C35.8821 64.5701 31.8352 64.9659 27.6269 64.9659ZM18.8352 34.8617L33.106 32.7992L32.1685 28.3409C31.6946 28.0649 30.9862 27.8565 30.0435 27.7159C29.1112 27.5805 28.304 27.5076 27.6269 27.5076C25.6946 27.5076 24.0904 27.9242 22.8144 28.7576C21.5331 29.5805 20.5696 30.5597 19.9185 31.6951C19.2623 32.8357 18.9029 33.893 18.8352 34.8617Z" fill="black"/>
<path d="M79.4517 64.966C74.7537 64.966 70.9933 63.5858 68.16 60.8202C65.3371 58.0597 63.9308 54.5806 63.9308 50.3827V27.8202H56.3892V18.0077L62.8892 12.9243L70.2433 0.111816H82.4517V15.1118H96.9308V28.5493H82.4517V50.6743L96.9308 50.591V61.8618C96.9308 61.8618 96.1183 62.1222 94.4933 62.6327C92.8787 63.1483 90.7642 63.6639 88.1392 64.1743C85.5142 64.7004 82.6183 64.966 79.4517 64.966Z" fill="black"/>
<path d="M106.243 63.9242V32.7992L104.18 21.4034L107.389 15.1117H122.785V19.5492L123.722 20.1742C124.483 19.4815 125.535 18.669 126.868 17.7367C128.212 16.8097 129.852 15.9659 131.785 15.2159C133.712 14.4555 135.889 14.0701 138.305 14.0701C144.514 14.0701 149.165 15.8305 152.264 19.3409C155.373 22.8565 156.93 27.7888 156.93 34.1326V47.2784L159.097 57.6117L156.93 63.9242H138.305V36.8201C138.305 34.2107 137.733 32.1951 136.597 30.7784C135.456 29.3617 133.68 28.6534 131.264 28.6534L124.868 30.6117V63.9242H106.243Z" fill="black"/>
<path d="M115.226 173.335L126.018 135.335V106.772L142.664 100.022L171.893 14.3347H230.143L266.351 115.085L283.664 147.022V173.335H243.872L232.622 137.356H167.184L157.497 173.335H115.226ZM182.018 102.71H220.247L203.164 51.2097H198.434L182.018 102.71Z" fill="black"/>
<path d="M301.462 116.108L288.317 102.858L301.462 89.7124L314.587 102.858L301.462 116.108ZM292.15 167.921V133.692L289.983 125.4L292.046 119.108H310.775V167.921H292.15Z" fill="black"/>
<path d="M322.459 167.921V135.546L320.292 125.192L322.459 119.004H336.522L338.584 121.379C338.584 121.379 339.063 121.087 340.022 120.504C340.99 119.91 342.36 119.337 344.126 118.796C345.886 118.244 347.938 117.962 350.272 117.962C351.657 117.962 353.042 118.067 354.417 118.275C355.792 118.483 356.86 118.764 357.626 119.108L364.355 124.796L357.626 138.025L343.98 132.337L340.876 133.379V167.921H322.459Z" fill="black"/>
</g>
<defs>
<clipPath id="clip0_2047_14">
<rect width="364" height="173" fill="white"/>
</clipPath>
</defs>
</svg>
